<svg width="539" height="92" viewBox="0 0 539 92" fill="none" xmlns="http://www.w3.org/2000/svg">
<path d="M148.403 34.46V41.8C147.743 41.75 147.233 41.7 146.613 41.7C142.233 41.7 139.323 44.1 139.323 49.35V62.3H131.363V34.87H138.963V38.49C140.913 35.84 144.173 34.46 148.403 34.46Z" fill="#2B4452"/>
<path d="M182.163 50.83H161.413C162.173 54.25 165.083 56.34 169.263 56.34C172.173 56.34 174.263 55.47 176.143 53.69L180.373 58.28C177.823 61.19 174.003 62.72 169.053 62.72C159.563 62.72 153.393 56.75 153.393 48.59C153.393 40.38 159.663 34.47 168.033 34.47C176.093 34.47 182.313 39.88 182.313 48.7C182.323 49.3 182.223 50.17 182.163 50.83ZM161.313 46.19H174.823C174.263 42.72 171.663 40.48 168.093 40.48C164.473 40.48 161.873 42.67 161.313 46.19Z" fill="#2B4452"/>
<path d="M220.063 48.59C220.063 57.21 214.093 62.72 206.393 62.72C202.723 62.72 199.763 61.55 197.773 59.15V62.31H190.173V24.47H198.133V37.78C200.173 35.54 202.973 34.47 206.393 34.47C214.093 34.46 220.063 39.97 220.063 48.59ZM212.003 48.59C212.003 43.85 208.993 40.99 205.013 40.99C201.033 40.99 198.023 43.85 198.023 48.59C198.023 53.33 201.033 56.19 205.013 56.19C208.993 56.19 212.003 53.33 212.003 48.59Z" fill="#2B4452"/>
<path d="M251.733 46.65V62.31H244.283V58.89C242.803 61.39 239.953 62.72 235.923 62.72C229.493 62.72 225.673 59.15 225.673 54.41C225.673 49.56 229.093 46.2 237.453 46.2H243.773C243.773 42.78 241.733 40.8 237.453 40.8C234.543 40.8 231.543 41.77 229.553 43.35L226.693 37.79C229.703 35.65 234.143 34.48 238.523 34.48C246.883 34.46 251.733 38.34 251.733 46.65ZM243.773 53.63V50.83H238.313C234.593 50.83 233.423 52.21 233.423 54.04C233.423 56.03 235.103 57.35 237.913 57.35C240.563 57.36 242.863 56.13 243.773 53.63Z" fill="#2B4452"/>
<path d="M258.823 59.75L261.473 54.04C263.923 55.62 267.643 56.69 271.013 56.69C274.683 56.69 276.063 55.72 276.063 54.19C276.063 49.7 259.493 54.29 259.493 43.33C259.493 38.13 264.183 34.46 272.193 34.46C275.963 34.46 280.153 35.33 282.753 36.86L280.103 42.52C277.403 40.99 274.703 40.48 272.203 40.48C268.633 40.48 267.103 41.6 267.103 43.03C267.103 47.72 283.673 43.18 283.673 53.99C283.673 59.09 278.933 62.71 270.723 62.71C266.063 62.71 261.373 61.44 258.823 59.75Z" fill="#2B4452"/>
<path d="M317.823 50.83H297.063C297.833 54.25 300.733 56.34 304.913 56.34C307.823 56.34 309.913 55.47 311.793 53.69L316.023 58.28C313.473 61.19 309.643 62.72 304.703 62.72C295.213 62.72 289.043 56.75 289.043 48.59C289.043 40.38 295.313 34.47 303.683 34.47C311.743 34.47 317.963 39.88 317.963 48.7C317.983 49.3 317.873 50.17 317.823 50.83ZM296.973 46.19H310.483C309.923 42.72 307.323 40.48 303.753 40.48C300.133 40.48 297.533 42.67 296.973 46.19Z" fill="#2B4452"/>
<path d="M323.893 57.71C323.893 54.75 326.083 52.81 328.843 52.81C331.603 52.81 333.793 54.75 333.793 57.71C333.793 60.62 331.603 62.71 328.843 62.71C326.083 62.71 323.893 60.62 323.893 57.71Z" fill="#1EB690"/>
<path d="M368.113 50.83H347.353C348.123 54.25 351.023 56.34 355.203 56.34C358.113 56.34 360.203 55.47 362.083 53.69L366.313 58.28C363.763 61.19 359.933 62.72 354.993 62.72C345.503 62.72 339.333 56.75 339.333 48.59C339.333 40.38 345.603 34.47 353.973 34.47C362.033 34.47 368.253 39.88 368.253 48.7C368.263 49.3 368.163 50.17 368.113 50.83ZM347.253 46.19H360.763C360.203 42.72 357.603 40.48 354.033 40.48C350.413 40.48 347.813 42.67 347.253 46.19Z" fill="#1EB690"/>
<path d="M404.163 46.6V62.31H396.203V47.82C396.203 43.38 394.163 41.34 390.643 41.34C386.823 41.34 384.063 43.69 384.063 48.73V62.29H376.103V34.87H383.703V38.08C385.843 35.73 389.063 34.46 392.783 34.46C399.273 34.46 404.163 38.23 404.163 46.6Z" fill="#1EB690"/>
<path d="M440.933 50.83H420.183C420.953 54.25 423.853 56.34 428.033 56.34C430.943 56.34 433.033 55.47 434.913 53.69L439.143 58.28C436.593 61.19 432.763 62.72 427.823 62.72C418.343 62.72 412.173 56.75 412.173 48.59C412.173 40.38 418.443 34.47 426.803 34.47C434.863 34.47 441.083 39.88 441.083 48.7C441.093 49.3 440.993 50.17 440.933 50.83ZM420.083 46.19H433.593C433.033 42.72 430.433 40.48 426.863 40.48C423.243 40.48 420.643 42.67 420.083 46.19Z" fill="#1EB690"/>
<path d="M465.983 34.46V41.8C465.323 41.75 464.813 41.7 464.193 41.7C459.803 41.7 456.903 44.1 456.903 49.35V62.3H448.943V34.87H456.543V38.49C458.483 35.84 461.743 34.46 465.983 34.46Z" fill="#1EB690"/>
<path d="M501.323 34.87V57.72C501.323 67.92 495.813 72.61 485.923 72.61C480.723 72.61 475.673 71.33 472.463 68.84L475.623 63.13C477.973 65.02 481.793 66.24 485.313 66.24C490.923 66.24 493.373 63.69 493.373 58.74V57.57C491.283 59.86 488.273 60.99 484.703 60.99C477.103 60.99 470.983 55.74 470.983 47.73C470.983 39.72 477.103 34.47 484.703 34.47C488.523 34.47 491.693 35.75 493.783 38.4V34.88H501.323V34.87ZM493.473 47.72C493.473 43.69 490.463 40.99 486.283 40.99C482.103 40.99 479.043 43.69 479.043 47.72C479.043 51.75 482.103 54.45 486.283 54.45C490.463 54.45 493.473 51.75 493.473 47.72Z" fill="#1EB690"/>
<path d="M538.503 34.87L526.113 63.99C523.463 70.62 519.693 72.61 514.743 72.61C511.943 72.61 508.873 71.69 507.093 70.11L510.003 64.45C511.223 65.52 512.913 66.18 514.493 66.18C516.683 66.18 517.913 65.21 518.983 62.76L519.083 62.5L507.203 34.86H515.413L523.113 53.47L530.863 34.86H538.503V34.87Z" fill="#1EB690"/>
<path d="M80.4295 4.62828C79.0004 2.15308 76.3594 0.628296 73.5013 0.628296H29.9946C27.1367 0.628296 24.4958 2.15287 23.0667 4.6278L1.30994 42.3054C-0.119448 44.7807 -0.119512 47.8307 1.30977 50.3061L23.0668 87.9875C24.4959 90.4626 27.1368 91.9873 29.9948 91.9873H73.5011C76.3593 91.9873 79.0004 90.4624 80.4294 87.9871L102.183 50.3056C103.612 47.8304 103.612 44.781 102.183 42.3058L80.4295 4.62828ZM45.9158 48.2267C45.9158 49.3313 45.0204 50.2267 43.9158 50.2267H16.3984C12.5681 49.0158 12.5681 43.5955 16.3984 42.3846H43.9158C45.0204 42.3846 45.9158 43.28 45.9158 44.3846V48.2267ZM72.8577 75.0346C73.8751 79.0202 69.0139 81.8283 66.0697 78.9556L52.3109 55.1253C51.7586 54.1688 52.0862 52.9459 53.0425 52.3934L56.3668 50.4731C57.3234 49.9206 58.5469 50.2482 59.0993 51.2049L72.8577 75.0346ZM59.1078 41.3893C58.5555 42.346 57.332 42.6736 56.3754 42.1211L53.0511 40.2008C52.0948 39.6483 51.7672 38.4254 52.3194 37.4689L66.0783 13.6386L66.1971 13.5268C69.1799 10.7205 73.966 13.6146 72.8663 17.5597L59.1078 41.3893Z" fill="url(#paint0_linear_382_2)"/>
<defs>
<linearGradient id="paint0_linear_382_2" x1="80.3313" y1="10.195" x2="30.4173" y2="91.9873" gradientUnits="userSpaceOnUse">
<stop stop-color="#23CEA3"/>
<stop offset="1" stop-color="#14AA86"/>
</linearGradient>
</defs>
</svg>
